<svg width="40" height="40" viewBox="0 0 40 40" fill="none" xmlns="http://www.w3.org/2000/svg">
<path d="M7 35.4998C5.89543 35.4998 5 34.6044 5 33.4998V28.8332C5 27.5146 5.39099 26.2257 6.12354 25.1294C6.85608 24.033 7.89727 23.1786 9.11544 22.674C10.3336 22.1694 11.6741 22.0374 12.9673 22.2946C14.2605 22.5518 15.4484 23.1868 16.3807 24.1191C17.3131 25.0515 17.948 26.2394 18.2052 27.5326C18.4625 28.8258 18.3304 30.1662 17.8259 31.3844C17.3213 32.6026 16.4668 33.6438 15.3705 34.3763C14.2741 35.1088 12.9852 35.4998 11.6667 35.4998H7Z" fill="#FFBC58"/>
<path d="M13.6756 22.4765C14.6927 22.798 15.6214 23.36 16.3807 24.1193C17.14 24.8786 17.702 25.8073 18.0235 26.8244C22.5054 25.1271 26.4473 22.2532 29.4342 18.5049C31.8776 15.4387 33.6081 11.8802 34.5149 8.08772C34.8227 6.80059 33.6994 5.67735 32.4123 5.98512C28.6198 6.89195 25.0613 8.62233 21.9951 11.0657C18.2468 14.0527 15.3729 17.9946 13.6756 22.4765Z" fill="#DD5555"/>
<mask id="mask0_3694_223" style="mask-type:alpha" maskUnits="userSpaceOnUse" x="13" y="5" width="22" height="22">
<path d="M13.6756 22.4765C14.6927 22.798 15.6214 23.36 16.3807 24.1193C17.14 24.8786 17.702 25.8073 18.0235 26.8244C22.5054 25.1271 26.4473 22.2532 29.4342 18.5049C31.8776 15.4387 33.6081 11.8802 34.5149 8.08772C34.8227 6.80059 33.6994 5.67735 32.4123 5.98512C28.6198 6.89195 25.0613 8.62233 21.9951 11.0657C18.2468 14.0527 15.3729 17.9946 13.6756 22.4765Z" fill="#E34040"/>
</mask>
<g mask="url(#mask0_3694_223)">
<path d="M25.0244 22.8783C23.5296 19.6397 20.8607 16.9699 17.6221 15.4751C13.8737 18.4621 15.3729 17.9943 13.6756 22.4763C14.6927 22.7977 15.6214 23.3598 16.3807 24.1191C17.14 24.8784 17.702 25.8071 18.0235 26.8242C22.5054 25.1269 22.0374 26.6266 25.0244 22.8783Z" fill="#DD7955"/>
</g>
</svg>
