<svg width="40" height="40" viewBox="0 0 40 40" fill="none" xmlns="http://www.w3.org/2000/svg">
<g clip-path="url(#clip0_3694_294)">
<path d="M20 3.8335L20.54 3.83516L21.07 3.84183L22.0966 3.87016L22.595 3.89183L23.56 3.9485L24.4816 4.02516C32.4566 4.7985 35.7016 8.0435 36.475 16.0185L36.5516 16.9402L36.6083 17.9052C36.6166 18.0685 36.625 18.2352 36.63 18.4035L36.6583 19.4302L36.6666 20.5002L36.6583 21.5702L36.63 22.5968L36.6083 23.0952L36.5516 24.0602L36.475 24.9818C35.7016 32.9568 32.4566 36.2018 24.4816 36.9752L23.56 37.0518L22.595 37.1085C22.4316 37.1168 22.265 37.1252 22.0966 37.1302L21.07 37.1585L20 37.1668L18.93 37.1585L17.9033 37.1302L17.405 37.1085L16.44 37.0518L15.5183 36.9752C7.54331 36.2018 4.29831 32.9568 3.52498 24.9818L3.44831 24.0602L3.39165 23.0952C3.38354 22.9291 3.37632 22.763 3.36998 22.5968L3.34165 21.5702C3.33665 21.2202 3.33331 20.8635 3.33331 20.5002L3.33498 19.9602L3.34165 19.4302L3.36998 18.4035L3.39165 17.9052L3.44831 16.9402L3.52498 16.0185C4.29831 8.0435 7.54331 4.7985 15.5183 4.02516L16.44 3.9485L17.405 3.89183C17.5683 3.8835 17.735 3.87516 17.9033 3.87016L18.93 3.84183C19.28 3.83683 19.6366 3.8335 20 3.8335ZM20 13.8335C19.558 13.8335 19.134 14.0091 18.8215 14.3217C18.5089 14.6342 18.3333 15.0581 18.3333 15.5002V18.8335H15L14.805 18.8452C14.3832 18.8953 13.9964 19.1047 13.7238 19.4304C13.4511 19.7562 13.3131 20.1738 13.338 20.5978C13.3629 21.0219 13.5488 21.4205 13.8577 21.7121C14.1666 22.0037 14.5752 22.1664 15 22.1668H18.3333V25.5002L18.345 25.6952C18.3952 26.117 18.6045 26.5037 18.9303 26.7764C19.256 27.049 19.6736 27.187 20.0977 27.1621C20.5217 27.1372 20.9203 26.9513 21.2119 26.6424C21.5035 26.3335 21.6662 25.925 21.6666 25.5002V22.1668H25L25.195 22.1552C25.6168 22.105 26.0036 21.8956 26.2762 21.5699C26.5489 21.2441 26.6868 20.8266 26.6619 20.4025C26.637 19.9784 26.4512 19.5799 26.1423 19.2882C25.8334 18.9966 25.4248 18.834 25 18.8335H21.6666V15.5002L21.655 15.3052C21.6072 14.8997 21.4123 14.526 21.1073 14.2547C20.8022 13.9834 20.4082 13.8335 20 13.8335Z" fill="#0097FF"/>
</g>
<defs>
<clipPath id="clip0_3694_294">
<rect width="40" height="40" fill="white"/>
</clipPath>
</defs>
</svg>
