<svg width="40" height="40" viewBox="0 0 40 40" fill="none" xmlns="http://www.w3.org/2000/svg">
<path d="M28.3334 3.3335C29.6087 3.33343 30.8359 3.8207 31.7638 4.69564C32.6917 5.57057 33.2502 6.76701 33.325 8.04016L33.3334 8.3335V11.6668L33.325 11.9602C33.2532 13.1828 32.7352 14.3366 31.8692 15.2026C31.0031 16.0687 29.8493 16.5867 28.6267 16.6585L28.3334 16.6668H11.6667C10.3913 16.6669 9.16416 16.1796 8.23625 15.3047C7.30834 14.4298 6.74984 13.2333 6.67502 11.9602L6.66669 11.6668V8.3335C6.66662 7.05814 7.1539 5.83097 8.02883 4.90306C8.90376 3.97515 10.1002 3.41665 11.3734 3.34183L11.6667 3.3335H28.3334Z" fill="white"/>
</svg>
