<svg width="40" height="40" viewBox="0 0 40 40" fill="none" xmlns="http://www.w3.org/2000/svg">
<path d="M32.4 8.4502C33.7128 8.4502 34.9719 8.97171 35.9002 9.90002C36.8285 10.8283 37.35 12.0874 37.35 13.4002C37.3501 15.9616 36.3574 18.4234 34.5805 20.2683C32.8036 22.1132 30.3809 23.1975 27.8213 23.2936L27.45 23.3002H20.85L21.0975 23.3084C21.8832 23.3675 22.6218 23.7057 23.1798 24.2619C23.7379 24.8181 24.0785 25.5557 24.1401 26.3411L24.15 26.6002V33.2002C24.1503 34.0327 23.8358 34.8346 23.2697 35.4451C22.7036 36.0556 21.9277 36.4295 21.0975 36.4919L20.85 36.5002H17.55C16.7174 36.5005 15.9156 36.186 15.3051 35.6199C14.6946 35.0538 14.3207 34.2779 14.2583 33.4477L14.25 33.2002V26.6002C14.2497 25.7676 14.5642 24.9658 15.1303 24.3553C15.6964 23.7448 16.4723 23.3709 17.3025 23.3084L17.55 23.3002V21.6502C17.5501 21.2461 17.6984 20.856 17.967 20.554C18.2355 20.252 18.6056 20.059 19.007 20.0117L19.2 20.0002H27.45C29.2004 20.0002 30.8792 19.3048 32.1169 18.0671C33.3546 16.8294 34.05 15.1506 34.05 13.4002C34.0499 12.9961 33.9016 12.606 33.633 12.304C33.3645 12.002 32.9944 11.809 32.5931 11.7617L32.4 11.7502V8.4502Z" fill="#FFBC58"/>
<path d="M21.0975 23.3085L20.85 23.3003H17.55L17.3025 23.3085C16.4723 23.371 15.6964 23.7449 15.1303 24.3554C14.5642 24.9659 14.2497 25.7677 14.25 26.6003V33.2003L14.2583 33.4478C14.3207 34.278 14.6946 35.0539 15.3051 35.62C15.9156 36.1861 16.7174 36.5006 17.55 36.5003H20.85L21.0975 36.492C21.9277 36.4296 22.7036 36.0557 23.2697 35.4452C23.8358 34.8347 24.1503 34.0328 24.15 33.2003V26.6003L24.1401 26.3412C24.0785 25.5558 23.7379 24.8182 23.1798 24.262C22.6218 23.7058 21.8832 23.3676 21.0975 23.3085Z" fill="#FF7F58"/>
</svg>
