<svg width="40" height="40" viewBox="0 0 40 40" fill="none" xmlns="http://www.w3.org/2000/svg">
<path d="M6.66666 19.9998V31.6665C6.66666 32.1085 6.84225 32.5325 7.15481 32.845C7.46737 33.1576 7.8913 33.3332 8.33332 33.3332H20V21.6665C20 21.2245 19.8244 20.8006 19.5118 20.488C19.1993 20.1754 18.7753 19.9998 18.3333 19.9998H6.66666Z" fill="#0097FF"/>
<path d="M6.66666 18.3332V31.6665M6.66666 31.6665C6.66666 32.1085 6.84225 32.5325 7.15481 32.845C7.46737 33.1576 7.8913 33.3332 8.33332 33.3332M6.66666 31.6665V19.9998H18.3333C18.7754 19.9998 19.1993 20.1754 19.5118 20.488C19.8244 20.8006 20 21.2245 20 21.6665V33.3332H8.33332M8.33332 33.3332H21.6667M6.66666 9.99984V8.33317C6.66666 7.89114 6.84225 7.46722 7.15481 7.15466C7.46737 6.8421 7.8913 6.6665 8.33332 6.6665H9.99999M18.3333 6.6665H21.6667M30 6.6665H31.6667C32.1087 6.6665 32.5326 6.8421 32.8452 7.15466C33.1577 7.46722 33.3333 7.89114 33.3333 8.33317V9.99984M33.3333 18.3332V21.6665M33.3333 29.9998V31.6665C33.3333 32.1085 33.1577 32.5325 32.8452 32.845C32.5326 33.1576 32.1087 33.3332 31.6667 33.3332H30" stroke="#0097FF" stroke-width="2" stroke-linecap="round" stroke-linejoin="round"/>
</svg>
