<svg width="40" height="40" viewBox="0 0 40 40" fill="none" xmlns="http://www.w3.org/2000/svg">
<g clip-path="url(#clip0_3694_45)">
<path d="M14.5897 24.6888L7.50638 12.4201C7.17486 11.8459 7.08502 11.1635 7.25662 10.5231C7.42823 9.88262 7.84723 9.33658 8.42144 9.00506C8.99565 8.67353 9.67804 8.5837 10.3185 8.7553C10.9589 8.92691 11.505 9.34591 11.8365 9.92012L16.0032 17.137C15.839 16.8527 15.7325 16.5388 15.6896 16.2133C15.6468 15.8878 15.6684 15.5571 15.7534 15.2399C15.8384 14.9228 15.985 14.6256 16.1848 14.3651C16.3847 14.1046 16.6339 13.8861 16.9182 13.7219C17.2026 13.5578 17.5164 13.4512 17.8419 13.4084C18.1674 13.3655 18.4982 13.3872 18.8153 13.4722C19.1324 13.5572 19.4297 13.7038 19.6901 13.9036C19.9506 14.1035 20.1691 14.3527 20.3333 14.637L21.1666 16.0804C20.8351 15.5062 20.7453 14.8238 20.9169 14.1833C21.0885 13.5429 21.5075 12.9968 22.0817 12.6653C22.6559 12.3338 23.3383 12.244 23.9787 12.4156C24.6192 12.5872 25.1652 13.0062 25.4968 13.5804L26.3301 15.0237C25.9986 14.4495 25.9087 13.7671 26.0803 13.1267C26.2519 12.4863 26.6709 11.9402 27.2452 11.6087C27.8194 11.2772 28.5018 11.1873 29.1422 11.3589C29.7827 11.5305 30.3287 11.9495 30.6602 12.5237L34.4102 19.0189C35.7363 21.3158 36.0957 24.0453 35.4092 26.6071C34.7228 29.1689 33.0468 31.3531 30.75 32.6792L28.1634 34.1725L28.1605 34.1742C26.7272 35.0014 25.1109 35.46 23.4566 35.5088C21.8012 35.5576 20.1596 35.1945 18.6792 34.4521C18.5014 34.3626 18.3237 34.2727 18.1463 34.1824C17.2968 33.751 14.1255 31.9081 8.63007 28.6531C8.06987 28.3213 7.66121 27.784 7.49101 27.1556C7.32081 26.5271 7.40251 25.8571 7.71872 25.2879C8.05538 24.6814 8.58503 24.2048 9.22355 23.9338C9.86207 23.6628 10.5728 23.6129 11.2429 23.792L14.5897 24.6888Z" fill="#0097FF"/>
</g>
<defs>
<clipPath id="clip0_3694_45">
<rect width="40" height="40" fill="white"/>
</clipPath>
</defs>
</svg>
