<svg width="128" height="128" viewBox="0 0 128 128" fill="none" xmlns="http://www.w3.org/2000/svg">
<g opacity="0.6">
<path d="M50.6667 93.3334C50.6667 91.8607 51.8606 90.6667 53.3334 90.6667H74.6667C76.1394 90.6667 77.3334 91.8607 77.3334 93.3334V101.333C77.3334 105.752 73.7516 109.333 69.3334 109.333H58.6667C54.2484 109.333 50.6667 105.752 50.6667 101.333V93.3334Z" fill="#CCCCCC"/>
<path d="M80.2796 85.3334C81.7705 85.3334 83.1999 84.7149 84.1802 83.5915C91.911 74.7315 98.6666 63.396 98.6666 53.6667C98.6666 34.3368 83.1459 18.6667 64 18.6667C44.8541 18.6667 29.3333 34.3368 29.3333 53.6667C29.3333 63.396 36.089 74.7315 43.8198 83.5915C44.8 84.7149 46.2294 85.3334 47.7204 85.3334H80.2796Z" fill="white"/>
</g>
</svg>
