<svg width="128" height="128" viewBox="0 0 128 128" fill="none" xmlns="http://www.w3.org/2000/svg">
<g opacity="0.6">
<path d="M91.8429 88.843C112.501 68.1849 109.883 51.196 109.883 51.196C109.883 51.196 95.5121 47.6033 73.0577 70.0577C50.6033 92.5122 54.196 106.883 54.196 106.883C54.196 106.883 71.1849 109.501 91.8429 88.843Z" fill="white" fill-opacity="0.5"/>
<path d="M54.196 106.883L30.8435 27.8435L109.883 51.196M54.196 106.883C54.196 106.883 71.1849 109.501 91.8429 88.843C112.501 68.1849 109.883 51.196 109.883 51.196M54.196 106.883C54.196 106.883 50.6033 92.5122 73.0577 70.0577C95.5121 47.6033 109.883 51.196 109.883 51.196" stroke="white" stroke-width="8" stroke-linecap="round" stroke-linejoin="round"/>
</g>
</svg>
