<svg width="128" height="128" viewBox="0 0 128 128" fill="none" xmlns="http://www.w3.org/2000/svg">
<g opacity="0.6">
<path d="M62.0364 16.0266C63.1659 14.6577 65.2635 14.6577 66.3929 16.0266L77.2747 29.219C77.8717 29.9425 78.7893 30.3223 79.723 30.2327L96.7464 28.5989C98.5134 28.4293 99.9972 29.913 99.8275 31.6799L98.1917 48.7014C98.102 49.6352 98.4818 50.5526 99.2054 51.1497L112.402 62.0364C113.771 63.166 113.771 65.2635 112.402 66.3928L99.2064 77.2747C98.4824 77.8716 98.102 78.7888 98.1917 79.7229L99.8275 96.7463C99.9973 98.5135 98.5135 99.9972 96.7464 99.8274L79.723 98.1917C78.7889 98.1019 77.8717 98.4823 77.2747 99.2063L66.3929 112.402C65.2637 113.771 63.1661 113.771 62.0364 112.403L51.1497 99.2053C50.5527 98.4817 49.6353 98.1019 48.7015 98.1917L31.68 99.8274C29.9131 99.9971 28.4294 98.5133 28.5989 96.7463L30.2327 79.7229C30.3223 78.7892 29.9425 77.8716 29.2191 77.2747L16.0267 66.3928C14.6578 65.2634 14.6577 63.1658 16.0267 62.0364L29.2191 51.1526C29.9426 50.5556 30.3223 49.6381 30.2327 48.7043L28.5989 31.6799C28.4294 29.9131 29.9131 28.4293 31.68 28.5989L48.7044 30.2327C49.6381 30.3223 50.5557 29.9425 51.1526 29.219L62.0364 16.0266ZM64.2142 38.8C50.1785 38.8003 38.8001 50.1784 38.8001 64.2141C38.8002 78.2497 50.1786 89.628 64.2142 89.6282C78.25 89.6282 89.6291 78.2499 89.6292 64.2141C89.6292 50.1782 78.2501 38.8 64.2142 38.8Z" fill="white"/>
<path d="M83.9805 64.2131C83.9805 75.1299 75.1307 83.9797 64.2139 83.9797C53.2971 83.9797 44.4473 75.1299 44.4473 64.2131C44.4473 53.2963 53.2971 44.4465 64.2139 44.4465C75.1307 44.4465 83.9805 53.2963 83.9805 64.2131Z" fill="#CCCCCC"/>
</g>
</svg>
