<svg width="24" height="24" viewBox="0 0 24 24" fill="none" xmlns="http://www.w3.org/2000/svg">
<path d="M4 16H20V18C20 19.1046 19.1572 20 18.1176 20H5.88235C4.84276 20 4 19.1046 4 18V16Z" fill="#CC9646"/>
<path fill-rule="evenodd" clip-rule="evenodd" d="M18.1176 4C19.1572 4 20 4.83574 20 5.86667V16.1333C20 17.1643 19.1572 18 18.1176 18H5.88235C4.84276 18 4 17.1643 4 16.1333V5.86667C4 4.83574 4.84276 4 5.88235 4H18.1176ZM9.51792 7.32773C8.75212 7.02808 7.9947 7.77918 8.29688 8.53861L10.8732 15.0118C11.2194 15.8815 12.497 15.7622 12.6733 14.8436L13.0653 12.7992C13.1375 12.4228 13.4344 12.1281 13.8139 12.0564L15.8759 11.6676C16.8022 11.4928 16.9226 10.2259 16.0455 9.88255L9.51792 7.32773Z" fill="#FFBC58"/>
</svg>
