<svg width="24" height="24" viewBox="0 0 24 24" fill="none" xmlns="http://www.w3.org/2000/svg">
<path d="M3 18.1714V15.0857C3 14.6597 3.34538 14.3143 3.77143 14.3143C4.19748 14.3143 4.54286 14.6597 4.54286 15.0857V18.1714C4.54286 18.8815 5.11849 19.4571 5.82857 19.4571H8.91429C9.34033 19.4571 9.68571 19.8025 9.68571 20.2286C9.68571 20.6546 9.34033 21 8.91429 21H5.82857C4.26639 21 3 19.7336 3 18.1714ZM19.4571 18.1714V15.0857C19.4571 14.6597 19.8025 14.3143 20.2286 14.3143C20.6546 14.3143 21 14.6597 21 15.0857V18.1714C21 19.7336 19.7336 21 18.1714 21H15.0857C14.6597 21 14.3143 20.6546 14.3143 20.2286C14.3143 19.8025 14.6597 19.4571 15.0857 19.4571H18.1714C18.8815 19.4571 19.4571 18.8815 19.4571 18.1714ZM3 8.91429V5.82857C3 4.26639 4.26639 3 5.82857 3H8.91429C9.34033 3 9.68571 3.34538 9.68571 3.77143C9.68571 4.19748 9.34033 4.54286 8.91429 4.54286H5.82857C5.11849 4.54286 4.54286 5.11849 4.54286 5.82857V8.91429C4.54286 9.34033 4.19748 9.68571 3.77143 9.68571C3.34538 9.68571 3 9.34033 3 8.91429ZM19.4571 8.91429V5.82857C19.4571 5.11849 18.8815 4.54286 18.1714 4.54286H15.0857C14.6597 4.54286 14.3143 4.19748 14.3143 3.77143C14.3143 3.34538 14.6597 3 15.0857 3H18.1714C19.7336 3 21 4.26639 21 5.82857V8.91429C21 9.34033 20.6546 9.68571 20.2286 9.68571C19.8025 9.68571 19.4571 9.34033 19.4571 8.91429Z" fill="#F3F3F3"/>
<path d="M5.82861 13.5429C5.82861 12.9748 6.28912 12.5143 6.85718 12.5143H9.9429C10.511 12.5143 10.9715 12.9748 10.9715 13.5429V16.6286C10.9715 17.1966 10.511 17.6571 9.9429 17.6571H6.85718C6.28912 17.6571 5.82861 17.1966 5.82861 16.6286V13.5429Z" fill="#DD5555"/>
<path d="M14.7943 12.8357C15.0381 12.4071 15.6476 12.4071 15.8914 12.8357L18.0856 16.6929C18.3294 17.1214 18.0247 17.6571 17.5371 17.6571H13.1486C12.661 17.6571 12.3563 17.1214 12.6001 16.6929L14.7943 12.8357Z" fill="#0097FF"/>
<circle cx="12" cy="8.91421" r="3.08571" fill="#DD8E55"/>
</svg>
