<svg width="24" height="24" viewBox="0 0 24 24" fill="none" xmlns="http://www.w3.org/2000/svg">
<path d="M19.119 8.81968C19.119 12.5861 16.0657 15.6394 12.2993 15.6394C8.53289 15.6394 5.47961 12.5861 5.47961 8.81968C5.47961 5.05327 8.53289 2 12.2993 2C16.0657 2 19.119 5.05327 19.119 8.81968Z" fill="#0097FF"/>
<path d="M14.3944 2.32886C17.1356 3.21301 19.119 5.78471 19.119 8.82007C19.119 9.60835 18.9833 10.3647 18.7372 11.0691C18.6403 11.1182 18.5408 11.1654 18.4374 11.2068C17.0736 11.7523 16.5052 10.0702 16.3915 9.16089C16.8461 8.4789 17.2094 6.84185 15.0272 5.75073C13.1067 4.79049 13.6855 3.23131 14.3944 2.32886ZM11.162 2.09546C10.3505 2.78224 9.05063 3.84829 9.57117 5.40991C10.1166 7.04644 7.52598 8.47796 6.50281 8.47827C6.11441 8.47827 5.77521 8.37954 5.50378 8.25757C5.7587 5.13374 8.1177 2.60658 11.162 2.09546Z" fill="#4FE883"/>
<path d="M4.79761 9.38132C4.79761 9.07115 5.04905 8.8197 5.35923 8.8197H19.2393C19.5495 8.8197 19.8009 9.07115 19.8009 9.38132V20.5335C19.8009 20.8437 19.5495 21.0951 19.2393 21.0951H5.35923C5.04905 21.0951 4.79761 20.8437 4.79761 20.5335V9.38132Z" fill="#D99C40"/>
<path d="M3.03627 13.5166L4.66096 9.18412C4.74316 8.96492 4.95271 8.8197 5.18682 8.8197H19.4117C19.6458 8.8197 19.8554 8.96492 19.9376 9.18413L21.5623 13.5166C21.6999 13.8838 21.4285 14.2754 21.0364 14.2754H3.56213C3.17 14.2754 2.89858 13.8838 3.03627 13.5166Z" fill="#DDA755"/>
<path fill-rule="evenodd" clip-rule="evenodd" d="M17.755 17.1237C18.0652 17.1237 18.3166 17.3751 18.3166 17.6853V19.0492C18.3166 19.3594 18.0652 19.6108 17.755 19.6108C17.4448 19.6108 17.1934 19.3594 17.1934 19.0492V17.6853C17.1934 17.3751 17.4448 17.1237 17.755 17.1237Z" fill="#BF8226"/>
<path fill-rule="evenodd" clip-rule="evenodd" d="M15.7091 17.1237C16.0193 17.1237 16.2707 17.3751 16.2707 17.6853V19.0492C16.2707 19.3594 16.0193 19.6108 15.7091 19.6108C15.3989 19.6108 15.1475 19.3594 15.1475 19.0492V17.6853C15.1475 17.3751 15.3989 17.1237 15.7091 17.1237Z" fill="#BF8226"/>
</svg>
