<svg width="48" height="48" viewBox="0 0 48 48" fill="none" xmlns="http://www.w3.org/2000/svg">
<path fill-rule="evenodd" clip-rule="evenodd" d="M13.7443 37C12.1288 37 10.8034 35.7207 10.7461 34.1063L10.4184 24.8588C12.6262 24.7805 14.4793 26.5068 14.5576 28.7146L14.7094 33H19.2657C21.4748 33 23.2657 34.7909 23.2657 37H13.7443ZM10.3296 22.3537C12.5374 22.2755 14.2637 20.4223 14.1855 18.2146L14.0361 14H18.7116C20.9208 14 22.7116 12.2091 22.7116 10H13C11.3015 10 9.94177 11.4088 10.0019 13.1062L10.3296 22.3537ZM26.1348 10C26.1348 12.2091 27.9256 14 30.1348 14H34.8456L34.8422 18.2492C34.8405 20.4584 36.63 22.2506 38.8391 22.2523L38.8463 13.0023C38.8476 11.3446 37.5041 10 35.8463 10H26.1348ZM38.8372 24.7523C36.628 24.7506 34.8358 26.5401 34.8341 28.7492L34.8307 33H30.3085C28.0994 33 26.3085 34.7909 26.3085 37H35.83C37.4859 37 38.8287 35.6583 38.83 34.0023L38.8372 24.7523Z" fill="#8B8B8B"/>
</svg>
