<svg width="128" height="128" viewBox="0 0 128 128" fill="none" xmlns="http://www.w3.org/2000/svg">
<path d="M66.7696 30.2762C69.4958 27.55 74.1572 29.4808 74.1572 33.3362V94.6638C74.1572 98.5192 69.4958 100.45 66.7696 97.7238L47.614 78.5682C46.8025 77.7567 46.3465 76.6559 46.3465 75.5082V52.4918C46.3465 51.3441 46.8025 50.2433 47.614 49.4318L66.7696 30.2762Z" fill="#FF7410"/>
<path d="M39.3461 51.9087C40.5411 51.9087 41.5099 52.8774 41.5099 54.0724L41.5099 73.9281C41.5099 75.1231 40.5411 76.0918 39.3461 76.0918L34.2549 76.0918C30.2481 76.0918 27 72.8437 27 68.8369L27 59.1636C27 55.1568 30.2481 51.9087 34.2549 51.9087L39.3461 51.9087Z" fill="#FF7410"/>
<path d="M80.5848 70.0463V56.7447C80.5848 54.9521 82.0379 53.499 83.8304 53.499C85.6229 53.499 87.0761 54.9521 87.0761 56.7447V70.0463C87.0756 71.8384 85.6226 73.2919 83.8304 73.2919C82.0382 73.2919 80.5853 71.8384 80.5848 70.0463Z" fill="#FF7410"/>
<path d="M93.8855 76.0911L93.8855 49.49C93.8855 47.6975 95.3386 46.2444 97.1311 46.2444C98.9236 46.2444 100.377 47.6975 100.377 49.49L100.377 76.0911C100.377 77.8836 98.9236 79.3367 97.1311 79.3367C95.3386 79.3367 93.8855 77.8836 93.8855 76.0911Z" fill="#FF7410"/>
</svg>
