<svg width="124" height="44" viewBox="0 0 124 44" fill="none" xmlns="http://www.w3.org/2000/svg">
<path d="M3.21319 7.06902C1.70842 3.75852 4.12858 0 7.76502 0H116.235C119.871 0 122.292 3.75852 120.787 7.06901L114.94 19.931C114.343 21.2456 114.343 22.7544 114.94 24.069L120.787 36.931C122.292 40.2415 119.871 44 116.235 44H7.76503C4.12858 44 1.70842 40.2415 3.21319 36.931L9.05954 24.069C9.65709 22.7544 9.6571 21.2456 9.05954 19.931L3.21319 7.06902Z" fill="#FF5555"/>
<path d="M33.7531 30.384C32.3451 30.384 30.9851 30.224 29.6731 29.904C28.3611 29.584 27.2811 29.168 26.4331 28.656L28.2571 24.528C29.0571 24.992 29.9451 25.368 30.9211 25.656C31.9131 25.928 32.8731 26.064 33.8011 26.064C34.3451 26.064 34.7691 26.032 35.0731 25.968C35.3931 25.888 35.6251 25.784 35.7691 25.656C35.9131 25.512 35.9851 25.344 35.9851 25.152C35.9851 24.848 35.8171 24.608 35.4811 24.432C35.1451 24.256 34.6971 24.112 34.1371 24C33.5931 23.872 32.9931 23.744 32.3371 23.616C31.6811 23.472 31.0171 23.288 30.3451 23.064C29.6891 22.84 29.0811 22.544 28.5211 22.176C27.9771 21.808 27.5371 21.328 27.2011 20.736C26.8651 20.128 26.6971 19.376 26.6971 18.48C26.6971 17.44 26.9851 16.496 27.5611 15.648C28.1531 14.784 29.0251 14.096 30.1771 13.584C31.3451 13.072 32.7931 12.816 34.5211 12.816C35.6571 12.816 36.7771 12.936 37.8811 13.176C38.9851 13.416 39.9771 13.784 40.8571 14.28L39.1531 18.384C38.3211 17.968 37.5131 17.656 36.7291 17.448C35.9611 17.24 35.2091 17.136 34.4731 17.136C33.9291 17.136 33.4971 17.184 33.1771 17.28C32.8571 17.376 32.6251 17.504 32.4811 17.664C32.3531 17.824 32.2891 18 32.2891 18.192C32.2891 18.48 32.4571 18.712 32.7931 18.888C33.1291 19.048 33.5691 19.184 34.1131 19.296C34.6731 19.408 35.2811 19.528 35.9371 19.656C36.6091 19.784 37.2731 19.96 37.9291 20.184C38.5851 20.408 39.1851 20.704 39.7291 21.072C40.2891 21.44 40.7371 21.92 41.0731 22.512C41.4091 23.104 41.5771 23.84 41.5771 24.72C41.5771 25.744 41.2811 26.688 40.6891 27.552C40.1131 28.4 39.2491 29.088 38.0971 29.616C36.9451 30.128 35.4971 30.384 33.7531 30.384ZM52.0705 30.384C50.7105 30.384 49.4465 30.168 48.2785 29.736C47.1265 29.304 46.1265 28.696 45.2785 27.912C44.4305 27.112 43.7665 26.176 43.2865 25.104C42.8225 24.032 42.5905 22.864 42.5905 21.6C42.5905 20.32 42.8225 19.152 43.2865 18.096C43.7665 17.024 44.4305 16.096 45.2785 15.312C46.1265 14.512 47.1265 13.896 48.2785 13.464C49.4465 13.032 50.7105 12.816 52.0705 12.816C53.4465 12.816 54.7105 13.032 55.8625 13.464C57.0145 13.896 58.0145 14.512 58.8625 15.312C59.7105 16.096 60.3665 17.024 60.8305 18.096C61.3105 19.152 61.5505 20.32 61.5505 21.6C61.5505 22.864 61.3105 24.032 60.8305 25.104C60.3665 26.176 59.7105 27.112 58.8625 27.912C58.0145 28.696 57.0145 29.304 55.8625 29.736C54.7105 30.168 53.4465 30.384 52.0705 30.384ZM52.0705 25.8C52.5985 25.8 53.0865 25.704 53.5345 25.512C53.9985 25.32 54.3985 25.048 54.7345 24.696C55.0865 24.328 55.3585 23.888 55.5505 23.376C55.7425 22.848 55.8385 22.256 55.8385 21.6C55.8385 20.944 55.7425 20.36 55.5505 19.848C55.3585 19.32 55.0865 18.88 54.7345 18.528C54.3985 18.16 53.9985 17.88 53.5345 17.688C53.0865 17.496 52.5985 17.4 52.0705 17.4C51.5425 17.4 51.0465 17.496 50.5825 17.688C50.1345 17.88 49.7345 18.16 49.3825 18.528C49.0465 18.88 48.7825 19.32 48.5905 19.848C48.3985 20.36 48.3025 20.944 48.3025 21.6C48.3025 22.256 48.3985 22.848 48.5905 23.376C48.7825 23.888 49.0465 24.328 49.3825 24.696C49.7345 25.048 50.1345 25.32 50.5825 25.512C51.0465 25.704 51.5425 25.8 52.0705 25.8ZM63.6063 30V13.2H69.2703V25.608H76.8543V30H63.6063ZM78.4188 30V13.2H86.6988C88.5708 13.2 90.2188 13.544 91.6428 14.232C93.0668 14.904 94.1788 15.864 94.9788 17.112C95.7788 18.36 96.1788 19.848 96.1788 21.576C96.1788 23.32 95.7788 24.824 94.9788 26.088C94.1788 27.336 93.0668 28.304 91.6428 28.992C90.2188 29.664 88.5708 30 86.6988 30H78.4188ZM84.0828 25.584H86.4588C87.2588 25.584 87.9548 25.432 88.5468 25.128C89.1548 24.824 89.6268 24.376 89.9628 23.784C90.2988 23.176 90.4668 22.44 90.4668 21.576C90.4668 20.728 90.2988 20.008 89.9628 19.416C89.6268 18.824 89.1548 18.376 88.5468 18.072C87.9548 17.768 87.2588 17.616 86.4588 17.616H84.0828V25.584Z" fill="white"/>
</svg>
