<svg width="24" height="24" viewBox="0 0 24 24" fill="none" xmlns="http://www.w3.org/2000/svg">
<path d="M19.496 13.983L21.462 17.389C21.5429 17.5293 21.5886 17.687 21.5951 17.8488C21.6016 18.0106 21.5688 18.1715 21.4995 18.3178C21.4302 18.4641 21.3264 18.5915 21.1971 18.6889C21.0678 18.7862 20.9167 18.8508 20.757 18.877L20.644 18.888L20.532 18.887L17.599 18.697L16.296 21.333C16.2252 21.4758 16.1215 21.5996 15.9932 21.6941C15.865 21.7887 15.7161 21.8513 15.5589 21.8767C15.4016 21.9021 15.2405 21.8896 15.0891 21.8403C14.9376 21.791 14.8001 21.7062 14.688 21.593L14.606 21.499L14.534 21.389L12.566 17.982C13.9514 17.8954 15.2979 17.4894 16.5002 16.7956C17.7024 16.1018 18.7278 15.1392 19.496 13.983Z" fill="white"/>
<path d="M11.43 17.9821L9.46398 21.3901C9.38432 21.5281 9.27283 21.6452 9.1388 21.7315C9.00477 21.8177 8.85207 21.8708 8.6934 21.8861C8.53474 21.9015 8.3747 21.8787 8.22661 21.8197C8.07852 21.7608 7.94665 21.6673 7.84198 21.5471L7.76598 21.4471L7.70198 21.3331L6.39798 18.6981L3.46698 18.8881C3.30553 18.8984 3.14397 18.8695 2.99613 18.8038C2.8483 18.7381 2.71859 18.6375 2.61813 18.5107C2.51766 18.3839 2.44943 18.2346 2.41927 18.0757C2.38912 17.9167 2.39794 17.7528 2.44498 17.5981L2.48498 17.4911L2.53498 17.3911L4.50298 13.9821C5.27066 15.1382 6.29546 16.101 7.49718 16.7951C8.69891 17.4892 10.045 17.8948 11.43 17.9821Z" fill="white"/>
<path d="M12 2L12.24 2.004C14.0539 2.06623 15.7727 2.83056 17.0339 4.13577C18.2951 5.44098 19 7.18502 19 9L18.997 9.193L18.99 9.385L18.972 9.63L18.946 9.872L18.922 10.05C18.8562 10.4816 18.7501 10.9062 18.605 11.318L18.489 11.626L18.336 11.974C17.7699 13.18 16.8714 14.1994 15.7461 14.9125C14.6208 15.6257 13.3153 16.0029 11.9831 16C10.6508 15.9971 9.34708 15.6141 8.22492 14.896C7.10276 14.1779 6.2088 13.1545 5.648 11.946L5.518 11.649L5.466 11.516L5.386 11.299L5.291 11.005C5.25707 10.8911 5.22606 10.7764 5.198 10.661L5.138 10.39L5.089 10.119L5.069 9.98L5.03 9.657L5.006 9.292L5 9C4.99997 7.18502 5.70489 5.44098 6.96607 4.13577C8.22726 2.83056 9.94609 2.06623 11.76 2.004L12 2Z" fill="white"/>
<path d="M19.496 13.983L21.462 17.389C21.5429 17.5293 21.5886 17.687 21.5951 17.8488C21.6016 18.0106 21.5688 18.1715 21.4995 18.3178C21.4302 18.4641 21.3264 18.5915 21.1971 18.6889C21.0678 18.7862 20.9167 18.8508 20.757 18.877L20.644 18.888L20.532 18.887L17.599 18.697L16.296 21.333C16.2252 21.4758 16.1215 21.5996 15.9932 21.6941C15.865 21.7887 15.7161 21.8513 15.5589 21.8767C15.4016 21.9021 15.2405 21.8896 15.0891 21.8403C14.9376 21.791 14.8001 21.7062 14.688 21.593L14.606 21.499L14.534 21.389L12.566 17.982C13.9514 17.8954 15.2979 17.4894 16.5002 16.7956C17.7024 16.1018 18.7278 15.1392 19.496 13.983Z" stroke="white"/>
<path d="M11.43 17.9821L9.46398 21.3901C9.38432 21.5281 9.27283 21.6452 9.1388 21.7315C9.00477 21.8177 8.85207 21.8708 8.6934 21.8861C8.53474 21.9015 8.3747 21.8787 8.22661 21.8197C8.07852 21.7608 7.94665 21.6673 7.84198 21.5471L7.76598 21.4471L7.70198 21.3331L6.39798 18.6981L3.46698 18.8881C3.30553 18.8984 3.14397 18.8695 2.99613 18.8038C2.8483 18.7381 2.71859 18.6375 2.61813 18.5107C2.51766 18.3839 2.44943 18.2346 2.41927 18.0757C2.38912 17.9167 2.39794 17.7528 2.44498 17.5981L2.48498 17.4911L2.53498 17.3911L4.50298 13.9821C5.27066 15.1382 6.29546 16.101 7.49718 16.7951C8.69891 17.4892 10.045 17.8948 11.43 17.9821Z" stroke="white"/>
<path d="M12 2L12.24 2.004C14.0539 2.06623 15.7727 2.83056 17.0339 4.13577C18.2951 5.44098 19 7.18502 19 9L18.997 9.193L18.99 9.385L18.972 9.63L18.946 9.872L18.922 10.05C18.8562 10.4816 18.7501 10.9062 18.605 11.318L18.489 11.626L18.336 11.974C17.7699 13.18 16.8714 14.1994 15.7461 14.9125C14.6208 15.6257 13.3153 16.0029 11.9831 16C10.6508 15.9971 9.34708 15.6141 8.22492 14.896C7.10276 14.1779 6.2088 13.1545 5.648 11.946L5.518 11.649L5.466 11.516L5.386 11.299L5.291 11.005C5.25707 10.8911 5.22606 10.7764 5.198 10.661L5.138 10.39L5.089 10.119L5.069 9.98L5.03 9.657L5.006 9.292L5 9C4.99997 7.18502 5.70489 5.44098 6.96607 4.13577C8.22726 2.83056 9.94609 2.06623 11.76 2.004L12 2Z" stroke="white"/>
</svg>
