<svg width="24" height="24" viewBox="0 0 24 24" fill="none" xmlns="http://www.w3.org/2000/svg">
<path d="M4.75337 3.03123C4.86532 3.01735 5.36207 3.01041 6.24363 3.01041C7.12519 3.01041 7.98576 3.01735 8.82534 3.03123C9.66492 3.03123 10.0777 3.03817 10.0637 3.05205C10.0637 3.06593 10.0917 3.07981 10.1477 3.09369C10.2176 3.10757 10.2806 3.12839 10.3366 3.15615C10.4065 3.17003 10.4415 3.18391 10.4415 3.1978C10.4415 3.1978 10.4835 3.2325 10.5675 3.3019C10.6654 3.3713 10.7564 3.44764 10.8403 3.53092C10.9383 3.60033 10.9873 3.64891 10.9873 3.67667C10.9873 3.67667 11.0012 3.69749 11.0292 3.73913C11.0572 3.76689 11.0782 3.79465 11.0922 3.82241C11.1062 3.85017 11.1132 3.87793 11.1132 3.9057C11.1272 3.91958 11.1342 3.92652 11.1342 3.92652C11.1482 3.92652 11.1552 3.94734 11.1552 3.98898C11.1692 4.01674 11.1832 4.03062 11.1972 4.03062C11.2251 4.03062 11.2391 4.0792 11.2391 4.17636C11.2391 4.218 11.2461 4.23882 11.2601 4.23882C11.2601 4.23882 11.2671 4.28047 11.2811 4.36375C11.2951 4.43315 11.3021 4.46785 11.3021 4.46785C11.3161 4.46785 11.3161 4.66218 11.3021 5.05083V5.61298H12.7084L12.6874 5.05083C12.6874 4.66218 12.6874 4.46785 12.6874 4.46785C12.7014 4.46785 12.7084 4.43315 12.7084 4.36375C12.7224 4.28047 12.7364 4.23882 12.7504 4.23882C12.7644 4.23882 12.7714 4.22494 12.7714 4.19718C12.7714 4.08614 12.7854 4.03062 12.8133 4.03062C12.8273 4.03062 12.8343 4.01674 12.8343 3.98898C12.8483 3.94734 12.8623 3.92652 12.8763 3.92652L12.8973 3.88487C12.8973 3.84323 13.0162 3.69055 13.2541 3.42682C13.3241 3.35742 13.3871 3.30884 13.443 3.28108C13.513 3.23944 13.548 3.21862 13.548 3.21862C13.562 3.20474 13.583 3.1978 13.6109 3.1978C13.6249 3.1978 13.6319 3.1978 13.6319 3.1978C13.6319 3.18391 13.6459 3.17003 13.6739 3.15615C13.7019 3.14227 13.7159 3.13533 13.7159 3.13533L13.7579 3.11451H13.7789C13.7649 3.10063 13.7789 3.09369 13.8208 3.09369H13.8418C13.8558 3.09369 13.8768 3.08675 13.9048 3.07287H13.9468C13.9328 3.04511 14.3806 3.02429 15.2901 3.01041C16.1996 2.99653 17.1092 2.99653 18.0187 3.01041C18.9423 3.02429 19.404 3.03817 19.404 3.05205C19.404 3.06593 19.432 3.07981 19.488 3.09369C19.544 3.09369 19.572 3.10063 19.572 3.11451C19.572 3.12839 19.572 3.13533 19.572 3.13533C19.586 3.12145 19.593 3.12145 19.593 3.13533C19.593 3.13533 19.6069 3.14227 19.6349 3.15615C19.6769 3.17003 19.6979 3.17697 19.6979 3.17697C19.6979 3.19086 19.7049 3.1978 19.7189 3.1978C19.7329 3.1978 19.7609 3.21168 19.8028 3.23944C19.8588 3.2672 19.8868 3.28108 19.8868 3.28108C19.8868 3.28108 19.9288 3.30884 20.0127 3.36436C20.0407 3.39212 20.0617 3.41988 20.0757 3.44764C20.0897 3.46152 20.0967 3.46846 20.0967 3.46846C20.1107 3.46846 20.1387 3.49622 20.1807 3.55174C20.2366 3.59339 20.2856 3.64197 20.3276 3.69749C20.3696 3.75301 20.3906 3.78077 20.3906 3.78077L20.4115 3.80159C20.3976 3.82935 20.3976 3.85017 20.4115 3.86405C20.4255 3.87793 20.4325 3.89181 20.4325 3.9057C20.4325 3.91958 20.4395 3.92652 20.4535 3.92652C20.4675 3.92652 20.4745 3.94734 20.4745 3.98898C20.4885 4.01674 20.5025 4.03062 20.5165 4.03062C20.5165 4.03062 20.5165 4.05144 20.5165 4.09308C20.5305 4.12084 20.5445 4.15554 20.5585 4.19718C20.5725 4.22494 20.5795 4.23882 20.5795 4.23882C20.6214 4.26658 20.6424 4.55807 20.6424 5.11329V5.61298H20.8313C20.9433 5.61298 20.9993 5.61992 20.9993 5.6338C20.9993 5.64768 21.0202 5.65462 21.0622 5.65462C21.1042 5.65462 21.1602 5.66156 21.2301 5.67544C21.3001 5.68932 21.3561 5.7032 21.3981 5.71709C21.454 5.73097 21.482 5.74485 21.482 5.75873C21.482 5.75873 21.496 5.76567 21.524 5.77955C21.552 5.77955 21.566 5.78649 21.566 5.80037C21.566 5.81425 21.573 5.81425 21.587 5.80037C21.6009 5.80037 21.6149 5.80731 21.6289 5.82119C21.6569 5.83507 21.6779 5.84201 21.6919 5.84201C21.7059 5.84201 21.7129 5.84895 21.7129 5.86283C21.7129 5.87671 21.7269 5.89059 21.7549 5.90447C21.7969 5.91835 21.8178 5.92529 21.8178 5.92529C21.8178 5.93917 21.8248 5.94611 21.8388 5.94611C21.8528 5.94611 21.9158 6.01551 22.0277 6.15432C22.1537 6.27924 22.2166 6.34864 22.2166 6.36252L22.2586 6.38334V6.42498C22.2866 6.43886 22.3006 6.45275 22.3006 6.46663C22.3006 6.48051 22.3006 6.48745 22.3006 6.48745C22.3146 6.48745 22.3216 6.50133 22.3216 6.52909C22.3216 6.54297 22.3286 6.56379 22.3426 6.59155C22.3566 6.61931 22.3706 6.64013 22.3846 6.65401C22.4125 6.72341 22.4335 6.78588 22.4475 6.8414C22.4755 6.8414 22.4895 7.84772 22.4895 9.86038C22.5035 11.8592 22.5035 13.8649 22.4895 15.8775C22.4895 17.8763 22.4685 18.8757 22.4265 18.8757C22.4265 18.8757 22.3986 18.9312 22.3426 19.0423C22.2866 19.1533 22.2236 19.2643 22.1537 19.3754C22.0837 19.5003 22.0347 19.5558 22.0067 19.5419C22.0067 19.5419 21.9928 19.5489 21.9648 19.5628C21.9368 19.5905 21.9088 19.6113 21.8808 19.6252C21.8668 19.653 21.8598 19.6599 21.8598 19.646C21.8598 19.646 21.8458 19.653 21.8178 19.6669C21.8038 19.6946 21.7829 19.7155 21.7549 19.7293C21.7269 19.7571 21.7129 19.771 21.7129 19.771L21.6709 19.7918C21.6429 19.8057 21.6289 19.8126 21.6289 19.8126C21.6289 19.8265 21.6219 19.8265 21.6079 19.8126C21.594 19.8126 21.587 19.8196 21.587 19.8334C21.587 19.8473 21.58 19.8543 21.566 19.8543C21.552 19.8543 21.524 19.8612 21.482 19.8751C21.426 19.9028 21.3771 19.9237 21.3351 19.9375C21.3071 19.9514 21.2861 19.9584 21.2721 19.9584C21.2721 19.9584 21.2651 19.9584 21.2511 19.9584C21.2091 19.9861 18.1237 20 11.9948 20C5.82384 20 2.73838 19.9861 2.73838 19.9584C2.73838 19.9584 2.71039 19.9445 2.65442 19.9167C2.59845 19.9028 2.54248 19.882 2.48651 19.8543C2.43053 19.8404 2.40255 19.8265 2.40255 19.8126C2.40255 19.8126 2.38856 19.8126 2.36057 19.8126C2.34658 19.8126 2.32559 19.7987 2.2976 19.771C2.26962 19.7432 2.24863 19.7293 2.23463 19.7293C2.22064 19.7293 2.20665 19.7224 2.19265 19.7085C2.17866 19.6946 2.16467 19.6808 2.15067 19.6669C2.13668 19.6669 2.12969 19.6599 2.12969 19.646C2.12969 19.6322 2.12269 19.6252 2.1087 19.6252C2.1087 19.6113 2.1017 19.6044 2.08771 19.6044C2.07371 19.6044 2.04573 19.5905 2.00375 19.5628C1.97576 19.535 1.94778 19.5003 1.91979 19.4587C1.8918 19.417 1.86382 19.3754 1.83583 19.3337C1.80785 19.2921 1.77986 19.2574 1.75187 19.2296C1.73788 19.2019 1.73088 19.188 1.73088 19.188C1.73088 19.188 1.71689 19.1672 1.68891 19.1255C1.67491 19.0978 1.66092 19.0631 1.64693 19.0214C1.63293 18.9798 1.62594 18.959 1.62594 18.959L1.60495 18.9382C1.60495 18.952 1.59795 18.9451 1.58396 18.9173C1.58396 18.8896 1.57696 18.8618 1.56297 18.834C1.56297 18.8063 1.56297 18.7924 1.56297 18.7924C1.54898 18.7924 1.53498 17.8 1.52099 15.8151C1.507 13.8163 1.5 11.8245 1.5 9.83956C1.5 7.84078 1.52099 6.8414 1.56297 6.8414C1.56297 6.8414 1.57696 6.79976 1.60495 6.71647C1.63293 6.63319 1.66792 6.54991 1.7099 6.46663C1.75187 6.36946 1.78686 6.32088 1.81484 6.32088C1.82884 6.32088 1.83583 6.31394 1.83583 6.30006C1.83583 6.28618 1.88481 6.22372 1.98276 6.11268C2.0947 6.00163 2.15767 5.94611 2.17166 5.94611C2.18566 5.94611 2.19265 5.93917 2.19265 5.92529C2.19265 5.92529 2.20665 5.91835 2.23463 5.90447C2.27661 5.89059 2.2976 5.87671 2.2976 5.86283C2.2976 5.84895 2.3046 5.84201 2.31859 5.84201C2.33258 5.84201 2.35357 5.83507 2.38156 5.82119C2.38156 5.80731 2.38856 5.80037 2.40255 5.80037C2.41654 5.80037 2.42354 5.80037 2.42354 5.80037C2.42354 5.78649 2.43753 5.77955 2.46552 5.77955C2.5075 5.76567 2.52849 5.75179 2.52849 5.73791C2.52849 5.73791 2.54948 5.73097 2.59145 5.71709C2.64743 5.7032 2.7034 5.68932 2.75937 5.67544C2.82934 5.66156 2.88531 5.65462 2.92729 5.65462C2.96927 5.64074 2.99025 5.6338 2.99025 5.6338L3.17916 5.61298H3.36807V5.11329C3.36807 4.683 3.36807 4.46785 3.36807 4.46785C3.38206 4.46785 3.38906 4.43315 3.38906 4.36375C3.40305 4.28047 3.41004 4.23882 3.41004 4.23882C3.42404 4.23882 3.43803 4.21106 3.45202 4.15554C3.46602 4.10002 3.47301 4.07226 3.47301 4.07226C3.48701 4.07226 3.48701 4.06532 3.47301 4.05144C3.47301 4.03756 3.48001 4.03062 3.494 4.03062C3.508 4.03062 3.51499 4.02368 3.51499 4.0098C3.51499 3.99592 3.52199 3.98898 3.53598 3.98898C3.53598 3.98898 3.54298 3.96816 3.55697 3.92652C3.58496 3.87099 3.60595 3.82241 3.61994 3.78077C3.64793 3.72525 3.66192 3.69749 3.66192 3.69749C3.7039 3.65585 3.79485 3.56563 3.93478 3.42682C4.01874 3.34354 4.0957 3.28802 4.16567 3.26026V3.23944C4.16567 3.23944 4.18666 3.2325 4.22864 3.21862C4.27061 3.19086 4.2916 3.17697 4.2916 3.17697C4.2916 3.17697 4.3056 3.17003 4.33358 3.15615C4.37556 3.14227 4.39655 3.13533 4.39655 3.13533C4.39655 3.12145 4.40355 3.12145 4.41754 3.13533C4.43153 3.13533 4.43853 3.12839 4.43853 3.11451C4.43853 3.08675 4.54348 3.05899 4.75337 3.03123ZM4.58546 3.07287H4.52249C4.60645 3.04511 4.64843 3.03817 4.64843 3.05205C4.60645 3.06593 4.58546 3.07287 4.58546 3.07287ZM13.9678 3.05205C13.9538 3.06593 13.9188 3.07287 13.8628 3.07287C13.9188 3.05899 13.9538 3.05205 13.9678 3.05205ZM11.3231 4.86344C11.3231 4.84956 11.3231 4.93284 11.3231 5.11329V5.36314C11.3231 5.19657 11.3231 5.03001 11.3231 4.86344ZM12.6874 5.11329V5.05083V4.86344C12.7014 5.03001 12.7014 5.19657 12.6874 5.36314C12.6874 5.19657 12.6874 5.11329 12.6874 5.11329Z" fill="white"/>
</svg>
