<svg width="24" height="24" viewBox="0 0 24 24" fill="none" xmlns="http://www.w3.org/2000/svg">
<path d="M21 12L4.69799 4.03397C4.60494 3.99821 4.50336 3.9909 4.40614 4.01298C4.30893 4.03506 4.22047 4.08552 4.15199 4.15797C4.0815 4.23234 4.03298 4.32478 4.0118 4.42503C3.99062 4.52528 3.99761 4.62944 4.03199 4.72597L6.49999 12M21 12L4.69799 19.966C4.60494 20.0017 4.50336 20.009 4.40614 19.987C4.30893 19.9649 4.22047 19.9144 4.15199 19.842C4.0815 19.7676 4.03298 19.6752 4.0118 19.5749C3.99062 19.4747 3.99761 19.3705 4.03199 19.274L6.49999 12M21 12H6.49999" stroke="white" stroke-width="2" stroke-linecap="round" stroke-linejoin="round"/>
</svg>
