<svg width="24" height="24" viewBox="0 0 24 24" fill="none" xmlns="http://www.w3.org/2000/svg">
<path d="M5 17V19H19V17H5ZM21 19C21 20.1046 20.1046 21 19 21H5C3.89543 21 3 20.1046 3 19V17C3 15.8954 3.89543 15 5 15H19C20.1046 15 21 15.8954 21 17V19Z" fill="white"/>
<path d="M18 11C18.5523 11 19 11.4477 19 12C19 12.5523 18.5523 13 18 13H6C5.44772 13 5 12.5523 5 12C5 11.4477 5.44772 11 6 11H18Z" fill="white"/>
<path d="M17 6C17 5.44775 16.5523 5 16 5H8C7.44772 5 7.00001 5.44772 7 6V15H17V6ZM19 16C19 16.5523 18.5523 17 18 17H6C5.44772 17 5 16.5523 5 16V6C5.00001 4.34315 6.34315 3 8 3H16C17.6568 3.00001 19 4.34318 19 6V16Z" fill="white"/>
</svg>
