<svg width="24" height="24" viewBox="0 0 24 24" fill="none" xmlns="http://www.w3.org/2000/svg">
<path d="M10.8 5.6C10.8 6.02435 10.9686 6.43131 11.2686 6.73137C11.5687 7.03143 11.9757 7.2 12.4 7.2C12.8243 7.2 13.2313 7.03143 13.5314 6.73137C13.8314 6.43131 14 6.02435 14 5.6C14 5.17565 13.8314 4.76869 13.5314 4.46863C13.2313 4.16857 12.8243 4 12.4 4C11.9757 4 11.5687 4.16857 11.2686 4.46863C10.9686 4.76869 10.8 5.17565 10.8 5.6Z" fill="white"/>
<path d="M9.2 20V18.4C9.2 17.5513 9.53714 16.7374 10.1373 16.1373C10.7374 15.5371 11.5513 15.2 12.4 15.2M12.4 15.2C13.2487 15.2 14.0626 15.5371 14.6627 16.1373C15.2629 16.7374 15.6 17.5513 15.6 18.4V20M12.4 15.2V10.4M6 8.8C7.0656 9.8656 8.1344 10.4 9.2 10.4H15.6C16.6656 10.4 17.7344 9.8656 18.8 8.8M10.8 5.6C10.8 6.02435 10.9686 6.43131 11.2686 6.73137C11.5687 7.03143 11.9757 7.2 12.4 7.2C12.8243 7.2 13.2313 7.03143 13.5314 6.73137C13.8314 6.43131 14 6.02435 14 5.6C14 5.17565 13.8314 4.76869 13.5314 4.46863C13.2313 4.16857 12.8243 4 12.4 4C11.9757 4 11.5687 4.16857 11.2686 4.46863C10.9686 4.76869 10.8 5.17565 10.8 5.6Z" stroke="white" stroke-width="2" stroke-linecap="round" stroke-linejoin="round"/>
</svg>
