<svg width="24" height="24" viewBox="0 0 24 24" fill="none" xmlns="http://www.w3.org/2000/svg">
<path d="M18 4C18.5523 4 19 4.44772 19 5V20C19 20.5523 18.5523 21 18 21H14C13.547 21 13.151 20.6954 13.0342 20.2578L12 16.3789L10.9658 20.2578C10.849 20.6954 10.453 21 10 21H6C5.44772 21 5 20.5523 5 20V5C5 4.44772 5.44772 4 6 4H18ZM11.0029 6C10.9635 7.15777 10.7402 8.1947 10.0352 8.93652C9.3048 9.705 8.24532 9.9687 7 10.0088V19H9.23242L11.0342 12.2422L11.0898 12.085C11.2501 11.7332 11.6035 11.5 12 11.5C12.453 11.5 12.849 11.8046 12.9658 12.2422L14.7676 19H17V10.0508C15.7843 10.0557 14.7242 9.82487 13.9824 9.05957C13.5049 8.56682 13.2493 7.94156 13.1172 7.2666C13.0415 6.87961 13.0056 6.4561 12.9932 6H11.0029ZM14.9922 6C15.0037 6.34708 15.0322 6.63845 15.0801 6.88281C15.1652 7.31748 15.295 7.54008 15.4189 7.66797C15.6141 7.86916 16.0195 8.0525 17 8.04785V6H14.9922ZM7 8.00488C7.97443 7.96514 8.38446 7.76943 8.58496 7.55859C8.79551 7.33705 8.96166 6.91427 9.00098 6H7V8.00488Z" fill="white"/>
</svg>
