<svg width="24" height="24" viewBox="0 0 24 24" fill="none" xmlns="http://www.w3.org/2000/svg">
<path d="M7 16V10C7 9.46957 7.21071 8.96086 7.58579 8.58579C7.96086 8.21071 8.46957 8 9 8C9.53043 8 10.0391 8.21071 10.4142 8.58579C10.7893 8.96086 11 9.46957 11 10V16M7 13H11M14 8V14M14 14C14 14.5304 14.2107 15.0391 14.5858 15.4142C14.9609 15.7893 15.4696 16 16 16C16.5304 16 17.0391 15.7893 17.4142 15.4142C17.7893 15.0391 18 14.5304 18 14V13C18 12.4696 17.7893 11.9609 17.4142 11.5858C17.0391 11.2107 16.5304 11 16 11C15.4696 11 14.9609 11.2107 14.5858 11.5858C14.2107 11.9609 14 12.4696 14 13V14Z" stroke="white" stroke-width="2" stroke-linecap="round" stroke-linejoin="round"/>
<line x1="6" y1="20" x2="19" y2="20" stroke="white" stroke-width="2" stroke-linecap="round"/>
</svg>
