<svg width="28" height="28" viewBox="0 0 28 28" fill="none" xmlns="http://www.w3.org/2000/svg">
<rect width="28" height="28" rx="4" fill="#FFBC58"/>
<path d="M14 17.2593V17.2644M14 14.1852V10" stroke="#3A2B14" stroke-width="2" stroke-linecap="round" stroke-linejoin="round"/>
<path d="M5.87868 6.87868C5.31607 7.44129 5 8.20435 5 9V11C5 11.7956 5.31607 12.5587 5.87868 13.1213C6.44129 13.6839 7.20435 14 8 14C7.20435 14 6.44129 14.3161 5.87868 14.8787C5.31607 15.4413 5 16.2044 5 17V19C5 19.7956 5.31607 20.5587 5.87868 21.1213C6.44129 21.6839 7.20435 22 8 22H20C20.7956 22 21.5587 21.6839 22.1213 21.1213C22.6839 20.5587 23 19.7956 23 19V17C23 16.2044 22.6839 15.4413 22.1213 14.8787C21.5587 14.3161 20.7956 14 20 14C20.7956 14 21.5587 13.6839 22.1213 13.1213C22.6839 12.5587 23 11.7956 23 11V9C23 8.20435 22.6839 7.44129 22.1213 6.87868C21.5587 6.31607 20.7956 6 20 6H8C7.20435 6 6.44129 6.31607 5.87868 6.87868Z" stroke="#3A2B14" stroke-width="2" stroke-linecap="round" stroke-linejoin="round"/>
</svg>
